REM Ripping Tool: trurip

FILE "Develo Starter Kit - Assembler-hen (1996)(Tokuma Shoten Intermedia)(JP).img" BINARY
  TRACK 01 AUDIO
    INDEX 01 00:00:00
  TRACK 02 MODE1/2352
    INDEX 00 00:28:60
    INDEX 01 00:31:60
  TRACK 03 AUDIO
    INDEX 00 02:03:38
    INDEX 01 02:05:38
  TRACK 04 AUDIO
    INDEX 01 07:58:06
  TRACK 05 AUDIO
    INDEX 01 10:00:03
  TRACK 06 AUDIO
    INDEX 01 12:01:33
  TRACK 07 AUDIO
    INDEX 01 14:02:42
  TRACK 08 AUDIO
    INDEX 01 16:03:30

REM DISC HASHES
REM CRC32 : 3ac5dd79
REM MD5   : 7136e6ada8e54b22a119b27804d9416e
REM SHA1  : 77e8ffcebb597ca937061d64b4513d66bf686c12

REM Gap Append Method: Prev [crc32]
REM Trk 01: a18f21d6
REM Trk 02: 37953dcd
REM Trk 03: b162fa7b
REM Trk 04: c9f74da5
REM Trk 05: 4f4ef60d
REM Trk 06: fa2848c9
REM Trk 07: adde985c
REM Trk 08: 499b56da

REM Gap Append Method: Prev [md5]
REM Trk 01: 8d1f63262f6fbbbee1205ff9d099a6a4
REM Trk 02: e11655e016860d947bf5197bf66c3464
REM Trk 03: a73d9f32269a2b8fd6a7451c78835f95
REM Trk 04: ca00eaff8fd8e9616306f5b9becee4a6
REM Trk 05: 47e8ac70cfdb914b3d7251758983faf6
REM Trk 06: c4d9dee2c0478f90551b5e577580d1b8
REM Trk 07: 1d770da1debb122d6c8213ac03e2579f
REM Trk 08: 99d44bd9a61520a237a4662149e5edc3

REM Gap Append Method: Prev [sha1]
REM Trk 01: 72cae136ec15037652e042613554d19c15d0dbd1
REM Trk 02: ccca0e4effb4af879818ff70c9f6709b00bdcbee
REM Trk 03: 36a84779864376bad2bea0656b2c0936d06cdd7c
REM Trk 04: cedd7f35fe00a4148befcc93a7d6640a3df68c15
REM Trk 05: 65e6c2a981f17f801b4e5e45176bf813c4be2a91
REM Trk 06: 141f529e5b390ceff54e0ddcf2a15e37184a2194
REM Trk 07: 20bc8f8bc1ce6e39025c2c314192a150f7147cd7
REM Trk 08: 6abee594d29d19ae64bfd0f19f7afc61c271d4c2

REM Gap Append Method: None [crc32]
REM Trk 01: cd9d14a6
REM Trk 02: 55ec0b44
REM Trk 03: b162fa7b
REM Trk 04: c9f74da5
REM Trk 05: 4f4ef60d
REM Trk 06: fa2848c9
REM Trk 07: adde985c
REM Trk 08: 499b56da
REM Gap 02: 9c85aeb5
REM Gap 03: 7abe247f

REM Gap Append Method: None [md5]
REM Trk 01: d902a9d67952d86e1c965155ce6ee58f
REM Trk 02: 0ebdcdc855d5e6145184d575a72be5f5
REM Trk 03: a73d9f32269a2b8fd6a7451c78835f95
REM Trk 04: ca00eaff8fd8e9616306f5b9becee4a6
REM Trk 05: 47e8ac70cfdb914b3d7251758983faf6
REM Trk 06: c4d9dee2c0478f90551b5e577580d1b8
REM Trk 07: 1d770da1debb122d6c8213ac03e2579f
REM Trk 08: 99d44bd9a61520a237a4662149e5edc3
REM Gap 02: 412e10908a09bdffa7624433fb03399f
REM Gap 03: 9df204fbc98bb8965081cb30a89715fc

REM Gap Append Method: None [sha1]
REM Trk 01: 4b429e8b2e2103c0cc240d39ff8b3c5d4e7ce2d7
REM Trk 02: 644ce190c46d2b53abdb7481a2463896e9b9321a
REM Trk 03: 36a84779864376bad2bea0656b2c0936d06cdd7c
REM Trk 04: cedd7f35fe00a4148befcc93a7d6640a3df68c15
REM Trk 05: 65e6c2a981f17f801b4e5e45176bf813c4be2a91
REM Trk 06: 141f529e5b390ceff54e0ddcf2a15e37184a2194
REM Trk 07: 20bc8f8bc1ce6e39025c2c314192a150f7147cd7
REM Trk 08: 6abee594d29d19ae64bfd0f19f7afc61c271d4c2
REM Gap 02: 31f6a6feb3d6189de21302f40533398e1a1730ad
REM Gap 03: cbe29e0bd725ef1194f8c47619dd42078e841de2

REM Gap Append Method: Next [crc32]
REM Trk 01: cd9d14a6
REM Trk 02: 0562ce6d
REM Trk 03: cb57b9cb
REM Trk 04: c9f74da5
REM Trk 05: 4f4ef60d
REM Trk 06: fa2848c9
REM Trk 07: adde985c
REM Trk 08: 499b56da

REM Gap Append Method: Next [md5]
REM Trk 01: d902a9d67952d86e1c965155ce6ee58f
REM Trk 02: 11cd641679502939446a03d5050b70eb
REM Trk 03: d46656a1d05c18bf2b3ed09e03be6bc0
REM Trk 04: ca00eaff8fd8e9616306f5b9becee4a6
REM Trk 05: 47e8ac70cfdb914b3d7251758983faf6
REM Trk 06: c4d9dee2c0478f90551b5e577580d1b8
REM Trk 07: 1d770da1debb122d6c8213ac03e2579f
REM Trk 08: 99d44bd9a61520a237a4662149e5edc3

REM Gap Append Method: Next [sha1]
REM Trk 01: 4b429e8b2e2103c0cc240d39ff8b3c5d4e7ce2d7
REM Trk 02: 655a72e0a7576dd61c3ccd895fe04f5c490d3695
REM Trk 03: 319017af262b7bafccde6da860089517da64be34
REM Trk 04: cedd7f35fe00a4148befcc93a7d6640a3df68c15
REM Trk 05: 65e6c2a981f17f801b4e5e45176bf813c4be2a91
REM Trk 06: 141f529e5b390ceff54e0ddcf2a15e37184a2194
REM Trk 07: 20bc8f8bc1ce6e39025c2c314192a150f7147cd7
REM Trk 08: 6abee594d29d19ae64bfd0f19f7afc61c271d4c2

